<svg id="Layer_1" enable-background="new 0 0 512 512" height="512" viewBox="0 0 512 512" width="512" xmlns="http://www.w3.org/2000/svg"><g><path d="m376.5 262.967c-48.137 0-87.3-39.162-87.3-87.3s39.163-87.301 87.3-87.301c48.135 0 87.295 39.159 87.3 87.293 0-.003 0-.006 0-.009 0-46.994-18.331-91.171-51.61-124.364-33.251-33.163-78.628-51.286-125.59-51.286h-62.749c-46.916 0-91.027 18.273-124.206 51.453-33.131 33.13-51.395 77.166-51.443 124.037.096-48.057 39.219-87.124 87.298-87.124 48.137 0 87.3 39.163 87.3 87.301s-39.163 87.3-87.3 87.3c-48.136 0-87.298-39.16-87.3-87.296v.004c0 35.08 13.662 68.066 38.472 92.886l65.335 65.331c20.53-36.243 59.45-60.758 103.993-60.758s83.464 24.515 103.993 60.758l65.338-65.335c24.716-24.724 38.364-57.559 38.464-92.519-.201 47.967-39.282 86.929-87.295 86.929z"/><path d="m319.2 175.667c0 31.596 25.705 57.3 57.3 57.3s57.3-25.704 57.3-57.3-25.705-57.301-57.3-57.301-57.3 25.705-57.3 57.301z"/><path d="m192.8 175.667c0-31.596-25.705-57.301-57.3-57.301s-57.3 25.705-57.3 57.301 25.705 57.3 57.3 57.3 57.3-25.704 57.3-57.3z"/><path d="m256 303.134c-49.313 0-89.433 40.119-89.433 89.433s40.12 89.433 89.433 89.433 89.433-40.12 89.433-89.433-40.12-89.433-89.433-89.433zm-39.633 144.066c-8.28 0-15-6.72-15-15s6.72-15 15-15 15 6.72 15 15-6.72 15-15 15zm0-79.266c-8.28 0-15-6.72-15-15s6.72-15 15-15 15 6.72 15 15-6.72 15-15 15zm79.266 79.266c-8.28 0-15-6.72-15-15s6.72-15 15-15 15 6.72 15 15-6.72 15-15 15zm0-79.266c-8.28 0-15-6.72-15-15s6.72-15 15-15 15 6.72 15 15-6.72 15-15 15z"/><path d="m136.567 392.566c0-13.688 2.322-26.843 6.58-39.1h-48.88v126.399h80.322c-23.378-21.814-38.022-52.876-38.022-87.299z"/><path d="m49.267 321.333h-34.267c-8.284 0-15 6.716-15 15v160.667c0 8.284 6.716 15 15 15h34.267c8.284 0 15-6.716 15-15v-160.667c0-8.284-6.716-15-15-15z"/><path d="m375.433 392.566c0 34.422-14.644 65.484-38.022 87.3h80.322v-126.399h-48.881c4.259 12.256 6.581 25.411 6.581 39.099z"/><path d="m497 321.333h-34.267c-8.284 0-15 6.716-15 15v160.667c0 8.284 6.716 15 15 15h34.267c8.284 0 15-6.716 15-15v-160.667c0-8.284-6.716-15-15-15z"/></g></svg>